<?xml version="1.0" encoding="utf-8"?>
<!-- Generator: Adobe Illustrator 27.8.1, SVG Export Plug-In . SVG Version: 6.00 Build 0)  -->
<svg version="1.1" id="Layer_1" xmlns="http://www.w3.org/2000/svg" xmlns:xlink="http://www.w3.org/1999/xlink" x="0px" y="0px"
	 viewBox="0 0 48 46" style="enable-background:new 0 0 48 46;" xml:space="preserve">
<style type="text/css">
	.st0{fill:#E50914;}
</style>
<g>
	<path class="st0" d="M24,0C11.3,0,1,10.3,1,23s10.3,23,23,23s23-10.3,23-23S36.7,0,24,0z M24,31.9c-4.9,0-8.9-4-8.9-8.9
		c0-4.9,4-8.9,8.9-8.9c4.9,0,8.9,4,8.9,8.9C32.9,27.9,28.9,31.9,24,31.9z"/>
	<path class="st0" d="M47,21h-0.4c-11.6,0-21-9.4-21-21v0H47V21z"/>
</g>
<rect x="38.7" y="17.7" class="st0" width="8.3" height="5"/>
</svg>
